<svg height="512pt" viewBox="0 -76 512.001 512" width="512pt" xmlns="http://www.w3.org/2000/svg"><path d="m497 96.402344h-37.835938c-11.058593-24.566406-33.421874-41.96875-59.632812-46.824219v-34.578125c0-8.285156-6.714844-15-15-15h-16.082031c-29.675781 0-54.636719 20.566406-61.386719 48.199219h-122.140625c-41.324219 0-78.421875 18.429687-103.511719 47.503906l-23.375-11.6875c-4.828125-2.410156-10.222656-3.683594-15.609375-3.683594-23.394531.003907-42.425781 19.039063-42.425781 42.429688v4.707031c0 8.28125 6.714844 15 15 15s15-6.71875 15-15v-4.707031c0-10.238281 10.703125-13.867188 14.636719-11.90625l19.632812 9.816406c-10.25 19.167969-16.070312 41.042969-16.070312 64.257813 0 63.476562 45.164062 99.289062 75.421875 111.394531l4.910156 1.964843v46.078126c0 8.285156 6.71875 15 15 15h64.269531c8.285157 0 15-6.714844 15-15v-41.234376h82.464844v41.234376c0 8.285156 6.71875 15 15 15h64.269531c8.28125 0 15-6.714844 15-15v-59.429688c0-13.285156 6.453125-25.828125 17.265625-33.554688l88.917969-63.511718c3.941406-2.8125 6.28125-7.359375 6.28125-12.203125v-64.269531c0-8.28125-6.714844-14.996094-15-14.996094zm-15 71.546875-82.640625 59.023437c-18.675781 13.347656-29.828125 35.015625-29.828125 57.964844v44.429688h-34.265625v-41.234376c0-8.28125-6.714844-15-15-15h-112.464844c-8.285156 0-15 6.71875-15 15v41.234376h-34.269531v-41.234376c0-6.132812-3.730469-11.644531-9.425781-13.925781l-14.339844-5.734375c-34.363281-13.746094-56.566406-46.539062-56.566406-83.550781 0-58.847656 47.875-106.722656 106.722656-106.722656h135.34375c8.285156 0 15-6.730469 15-15.015625 0-18.296875 14.886719-33.183594 33.183594-33.183594h1.085937v33.199219c0 8.285156 6.714844 15 15 15 22.359375 0 42.136719 14.253906 49.207032 35.46875v.003906l.835937 2.5c2.050781 6.109375 7.777344 10.226563 14.222656 10.226563h33.199219zm0 0"/></svg>