<svg height="512pt" viewBox="-46 0 512 512" width="512pt" xmlns="http://www.w3.org/2000/svg"><path d="m213.777344 501.625 10.753906-39.460938c-31.300781-15.675781-41.597656-44.484374-41.597656-77.257812v-79.78125h41.9375c-14.335938-146.539062-42.835938-164.445312-42.835938-194.984375 0-43.789063 34.621094-54.03125 34.621094-100.144531h-124.910156c0 46.113281 34.625 56.355468 34.625 100.144531 0 40.800781-50.871094 59.027344-50.878906 391.589844 16.398437-.128907 32.394531-.199219 45.960937.082031 9.886719-.203125 21.066406-.222656 32.75-.167969 11.679687-.054687 22.859375-.035156 32.746094.167969 8.203125-.171875 17.296875-.210938 26.828125-.1875zm0 0" fill="#fffbee" fill-rule="evenodd"/><path d="m409.84375 384.90625v-79.78125h-155.457031v79.78125c0 32.773438 10.296875 61.582031 41.601562 77.257812l-10.804687 39.648438h93.863281l-10.804687-39.648438c31.304687-15.675781 41.601562-44.488281 41.601562-77.257812zm0 0" fill="#ff435f" fill-rule="evenodd"/><path d="m409.84375 295.128906h-175.941406c-9.578125-90.691406-24.804688-131.027344-34.023438-155.4375-4.894531-12.964844-7.847656-20.792968-7.847656-29.550781 0-18.734375 7.15625-30.144531 15.445312-43.351563 8.988282-14.324218 19.175782-30.5625 19.175782-56.792968 0-5.519532-4.472656-9.996094-9.996094-9.996094h-190.40625c-5.519531 0-9.996094 4.476562-9.996094 9.996094 0 26.230468 10.1875 42.46875 19.179688 56.792968 8.289062 13.207032 15.445312 24.617188 15.445312 43.351563 0 8.757813-2.953125 16.582031-7.847656 29.542969-15.039062 39.820312-43.03125 113.941406-43.03125 362.128906 0 5.4375 4.351562 9.878906 9.792969 9.992188 6.386719.132812 13.71875.195312 22.421875.195312 10.769531 0 22.375-.097656 33.601562-.191406 11.183594-.097656 22.75-.195313 33.429688-.195313 8.5625 0 15.757812.066407 22.003906.191407.136719.003906.269531.003906.40625 0 6.246094-.128907 13.441406-.191407 22.003906-.191407 10.679688 0 22.246094.101563 33.429688.195313 11.226562.09375 22.832031.191406 33.601562.191406 8.65625 0 15.957032-.0625 22.320313-.191406h146.035156c.007813-.003906.015625-.003906.023437 0 5.519532 0 9.996094-4.476563 9.996094-9.996094 0-1.144531-.191406-2.242188-.546875-3.265625l-8.574219-31.464844c26.480469-16.367187 39.894532-43.96875 39.894532-82.175781v-79.78125c0-5.523438-4.472656-9.996094-9.996094-9.996094zm-266.183594 196.492188c-8.605468 0-15.871094.0625-22.207031.191406-6.332031-.128906-13.597656-.191406-22.203125-.191406-10.769531 0-22.378906.097656-33.601562.195312-11.183594.09375-22.75.191406-33.429688.191406-4.414062 0-8.464844-.019531-12.210938-.050781.71875-236.632812 27.335938-307.105469 41.726563-345.210937 5.304687-14.046875 9.136719-24.199219 9.136719-36.605469 0-24.488281-9.832032-40.15625-18.503906-53.980469-6.851563-10.914062-13.386719-21.328125-15.449219-36.167968h169.074219c-2.066407 14.839843-8.601563 25.253906-15.449219 36.167968-8.675781 13.824219-18.503907 29.492188-18.503907 53.980469 0 12.40625 3.832032 22.558594 9.136719 36.609375 8.804688 23.316406 23.304688 61.722656 32.621094 148.378906h-30.863281c-5.523438 0-10 4.472656-10 9.996094v79.78125c0 38.207031 13.414062 65.808594 39.898437 82.171875l-6.792969 24.921875c-9.34375-.019531-19.199218-.105469-28.777343-.183594-11.226563-.097656-22.835938-.195312-33.601563-.195312zm256.1875-106.714844c0 33.816406-11.800781 56.164062-36.078125 68.320312-4.257812 2.132813-6.421875 6.972657-5.171875 11.566407l7.367188 27.023437h-139.152344l7.363281-27.023437c1.253907-4.59375-.910156-9.433594-5.167969-11.566407-24.28125-12.15625-36.082031-34.503906-36.082031-68.320312v-69.785156h206.921875zm0 0"/><path d="m210.90625 341.988281c0 5.523438 4.476562 9.996094 9.996094 9.996094h41.019531c5.519531 0 9.996094-4.472656 9.996094-9.996094 0-5.519531-4.476563-9.996093-9.996094-9.996093h-41.019531c-5.519532 0-9.996094 4.476562-9.996094 9.996093zm0 0"/><path d="m290.617188 351.988281h.289062c5.519531 0 9.996094-4.476562 9.996094-9.996093 0-5.523438-4.476563-9.996094-9.996094-9.996094h-.289062c-5.519532 0-9.996094 4.472656-9.996094 9.996094 0 5.519531 4.476562 9.996093 9.996094 9.996093zm0 0"/><path d="m127.472656 36.601562h-41.019531c-5.519531 0-9.996094 4.476563-9.996094 9.996094 0 5.523438 4.476563 9.996094 9.996094 9.996094h41.019531c5.523438 0 9.996094-4.472656 9.996094-9.996094 0-5.519531-4.476562-9.996094-9.996094-9.996094zm0 0"/><path d="m156.457031 36.605469h-.289062c-5.519531 0-9.996094 4.476562-9.996094 9.996093 0 5.519532 4.476563 9.996094 9.996094 9.996094h.289062c5.519531 0 9.996094-4.476562 9.996094-9.996094 0-5.519531-4.476563-9.996093-9.996094-9.996093zm0 0"/></svg>