<svg height="512pt" viewBox="-45 0 511 512" width="512pt" xmlns="http://www.w3.org/2000/svg"><g fill-rule="evenodd"><path d="m80.96875 26.621094c-17.40625 7.820312-29.53125 25.296875-29.53125 45.617187 0 20.316407 12.125 37.792969 29.53125 45.613281 17.402344-7.820312 29.53125-25.296874 29.53125-45.613281 0-20.320312-12.128906-37.792969-29.53125-45.617187zm0 0" fill="#c77c74"/><path d="m80.96875 149.980469c-17.40625 7.824219-29.53125 25.300781-29.53125 45.617187 0 20.320313 12.125 37.792969 29.53125 45.617188 17.402344-7.824219 29.53125-25.296875 29.53125-45.617188 0-20.316406-12.128906-37.792968-29.53125-45.617187zm0 0" fill="#755b62"/><path d="m80.96875 273.34375c-17.40625 7.820312-29.53125 25.296875-29.53125 45.617188 0 20.316406 12.125 37.792968 29.53125 45.613281 17.402344-7.820313 29.53125-25.296875 29.53125-45.613281 0-20.320313-12.128906-37.796876-29.53125-45.617188zm0 0" fill="#c77c74"/><path d="m230.964844 273.34375c-17.402344 7.820312-29.53125 25.296875-29.53125 45.617188 0 20.316406 12.128906 37.792968 29.53125 45.613281 17.40625-7.820313 29.53125-25.296875 29.53125-45.613281.003906-20.320313-12.125-37.796876-29.53125-45.617188zm0 0" fill="#755b62"/><path d="m230.964844 149.980469c-17.402344 7.824219-29.53125 25.300781-29.53125 45.617187 0 20.320313 12.128906 37.792969 29.53125 45.617188 17.40625-7.824219 29.53125-25.296875 29.53125-45.617188 0-20.316406-12.125-37.792968-29.53125-45.617187zm0 0" fill="#c77c74"/><path d="m230.964844 26.621094c-17.402344 7.820312-29.53125 25.296875-29.53125 45.617187 0 20.316407 12.128906 37.792969 29.53125 45.613281 17.40625-7.820312 29.53125-25.296874 29.53125-45.613281.003906-20.320312-12.125-37.792969-29.53125-45.617187zm0 0" fill="#755b62"/><path d="m380.964844 26.621094c-17.402344 7.820312-29.53125 25.296875-29.53125 45.617187 0 20.316407 12.128906 37.792969 29.53125 45.613281 17.40625-7.820312 29.535156-25.296874 29.535156-45.613281 0-20.320312-12.128906-37.792969-29.535156-45.617187zm0 0" fill="#c77c74"/><path d="m380.964844 149.980469c-17.402344 7.824219-29.53125 25.300781-29.53125 45.617187 0 20.320313 12.128906 37.792969 29.53125 45.617188 17.40625-7.824219 29.535156-25.296875 29.535156-45.617188 0-20.316406-12.128906-37.792968-29.535156-45.617187zm0 0" fill="#755b62"/><path d="m380.964844 273.34375c-17.402344 7.820312-29.53125 25.296875-29.53125 45.617188 0 20.316406 12.128906 37.792968 29.53125 45.613281 17.40625-7.820313 29.535156-25.296875 29.535156-45.613281 0-20.320313-12.128906-37.796876-29.535156-45.617188zm0 0" fill="#c77c74"/></g><path d="m120.5 72.238281c0-29.675781-21.660156-54.375-50-59.152343v-3.085938c0-5.523438-4.476562-10-10-10s-10 4.476562-10 10v3.085938c-28.339844 4.777343-50 29.476562-50 59.152343s21.660156 54.371094 50 59.148438v5.0625c-28.339844 4.773437-50 29.472656-50 59.148437 0 29.675782 21.660156 54.375 50 59.152344v5.058594c-28.339844 4.777344-50 29.476562-50 59.152344 0 29.675781 21.660156 54.375 50 59.152343v123.886719c0 5.523438 4.476562 10 10 10s10-4.476562 10-10v-123.890625c28.339844-4.777344 50-29.472656 50-59.148437 0-29.675782-21.660156-54.375-50-59.152344v-5.0625c28.339844-4.773438 50-29.472656 50-59.148438 0-29.675781-21.660156-54.375-50-59.152344v-5.058593c28.339844-4.777344 50-29.472657 50-59.148438zm-98.734375 10h19.25c5.523437 0 10-4.480469 10-10 0-5.523437-4.476563-10-10-10h-19.25c4.453125-17.234375 20.128906-30 38.734375-30 22.054688 0 40 17.941407 40 40 0 22.054688-17.945312 40-40 40-18.605469 0-34.28125-12.769531-38.734375-30zm78.734375 236.722657c0 22.054687-17.945312 40-40 40s-40-17.945313-40-40c0-22.058594 17.945312-40 40-40s40 17.941406 40 40zm0-123.363282c0 22.054688-17.945312 40-40 40s-40-17.945312-40-40c0-22.054687 17.945312-40 40-40s40 17.945313 40 40zm0 0"/><path d="m270.5 72.238281c0-29.675781-21.660156-54.375-50-59.152343v-3.085938c0-5.523438-4.480469-10-10-10-5.523438 0-10 4.476562-10 10v3.085938c-28.339844 4.777343-50 29.476562-50 59.152343s21.660156 54.371094 50 59.148438v5.0625c-28.339844 4.773437-50 29.472656-50 59.148437 0 29.675782 21.660156 54.375 50 59.152344v5.058594c-28.339844 4.777344-50 29.476562-50 59.152344 0 29.675781 21.660156 54.375 50 59.152343v123.886719c0 5.523438 4.476562 10 10 10 5.519531 0 10-4.476562 10-10v-123.890625c28.339844-4.777344 50-29.472656 50-59.148437 0-29.675782-21.660156-54.375-50-59.152344v-5.0625c28.339844-4.773438 50-29.472656 50-59.148438 0-29.675781-21.660156-54.375-50-59.152344v-5.058593c28.339844-4.777344 50-29.472657 50-59.148438zm-100 0c0-22.058593 17.941406-40 40-40 22.054688 0 40 17.941407 40 40 0 22.054688-17.945312 40-40 40-22.058594 0-40-17.945312-40-40zm80 246.722657c0 22.054687-17.945312 40-40 40-18.605469 0-34.28125-12.769532-38.734375-30h19.25c5.523437 0 10-4.476563 10-10 0-5.523438-4.476563-10-10-10h-19.25c4.453125-17.234376 20.128906-30 38.734375-30 22.054688 0 40 17.941406 40 40zm0-123.363282c0 22.054688-17.945312 40-40 40-22.058594 0-40-17.945312-40-40 0-22.054687 17.941406-40 40-40 22.054688 0 40 17.945313 40 40zm0 0"/><path d="m420.5 195.597656c0-29.675781-21.664062-54.375-50-59.148437v-5.0625c28.335938-4.777344 50-29.476563 50-59.148438 0-29.675781-21.664062-54.375-50-59.152343v-3.085938c0-5.523438-4.480469-10-10-10-5.523438 0-10 4.476562-10 10v3.085938c-28.339844 4.777343-50 29.476562-50 59.152343s21.660156 54.371094 50 59.148438v5.0625c-28.339844 4.773437-50 29.472656-50 59.148437 0 29.675782 21.660156 54.375 50 59.152344v5.058594c-28.339844 4.777344-50 29.476562-50 59.152344 0 29.675781 21.660156 54.375 50 59.152343v123.886719c0 5.523438 4.476562 10 10 10 5.519531 0 10-4.476562 10-10v-123.890625c28.335938-4.777344 50-29.472656 50-59.148437 0-29.675782-21.664062-54.375-50-59.152344v-5.0625c28.335938-4.773438 50-29.472656 50-59.148438zm-100-123.359375c0-22.058593 17.941406-40 40-40 22.054688 0 40 17.941407 40 40 0 22.054688-17.945312 40-40 40-22.058594 0-40-17.945312-40-40zm1.265625 133.359375h19.25c5.519531 0 10-4.476562 10-10 0-5.523437-4.480469-10-10-10h-19.25c4.449219-17.230468 20.128906-30 38.730469-30 22.058594 0 40 17.945313 40 40 0 22.054688-17.941406 40-40 40-18.601563 0-34.28125-12.765625-38.730469-30zm78.734375 113.363282c0 22.054687-17.945312 40-40 40-22.058594 0-40-17.945313-40-40 0-22.058594 17.941406-40 40-40 22.054688 0 40 17.941406 40 40zm0 0"/><path d="m69.722656 82.238281h.289063c5.523437 0 10-4.476562 10-10 0-5.523437-4.476563-10-10-10h-.289063c-5.519531 0-10 4.476563-10 10 0 5.523438 4.480469 10 10 10zm0 0"/><path d="m219.722656 328.960938h.285156c5.523438 0 10-4.476563 10-10 0-5.519532-4.476562-10-10-10h-.285156c-5.523437 0-10 4.480468-10 10 0 5.523437 4.476563 10 10 10zm0 0"/><path d="m369.722656 205.601562h.285156c5.523438 0 10-4.476562 10-10 0-5.523437-4.476562-10-10-10h-.285156c-5.523437 0-10 4.476563-10 10 0 5.523438 4.476563 10 10 10zm0 0"/></svg>