<svg height="512pt" viewBox="0 -26 512 512" width="512pt" xmlns="http://www.w3.org/2000/svg"><path d="m315.964844 100.554688 72.367187 47.054687 46.035157-29.933594-72.367188-47.058593zm0 0" fill="#ff9455" fill-rule="evenodd"/><path d="m107.089844 221.332031 77.289062 50.257813 45.070313-29.308594-77.285157-50.253906zm0 0" fill="#ff9455" fill-rule="evenodd"/><path d="m150 354.5625c-6.082031 0-12.070312-.3125-17.949219-.917969-20.523437-2.105469-39.652343-7.78125-56.398437-16.214843v21.582031c0 36.878906 22.167968 69.601562 56.398437 90.074219 5.878907.601562 11.867188.914062 17.949219.914062 20.933594 0 40.792969-3.683594 58.628906-10.289062 39.890625-14.773438 69.625-44.171876 78.566406-79.613282 1.824219-7.234375 2.804688-14.714844 2.804688-22.378906v-95.4375c0 62.011719-62.679688 112.28125-140 112.28125zm0 0" fill="#755b62"/><path d="m286.371094 216.78125c-8.351563-28.855469-30.582032-53.445312-60.742188-69.003906-13.941406-7.191406-29.585937-12.441406-46.328125-15.300782-63.238281 10.8125-110.671875 55.863282-110.671875 109.804688 0 53.945312 47.441406 99 110.6875 109.808594 63.242188-10.808594 110.683594-55.863282 110.683594-109.808594 0-8.769531-1.253906-17.308594-3.628906-25.5zm-136.371094 77.160156-79.449219-51.660156 79.449219-51.664062 79.449219 51.664062zm0 0" fill="#fffbee" fill-rule="evenodd"/><path d="m487.152344 71.917969c-24.128906-15.816407-54.953125-25.308594-88.542969-25.308594-77.320313 0-140 50.269531-140 112.28125 0 4.589844.351563 9.117187 1.019531 13.5625 5.96875 6.019531 11.179688 12.535156 15.523438 19.46875 11.222656 21.148437 19.382812 26.050781 35.457031 34.8125 15.914063 5.042969 33.242187 7.828125 51.390625 7.828125 77.320312 0 140-50.269531 140-112.28125 0-18.109375-5.351562-35.214844-14.847656-50.363281zm-125.152344 102.023437-79.449219-51.660156 79.449219-51.664062 79.449219 51.664062zm0 0" fill="#fffbee" fill-rule="evenodd"/><path d="m372.746094 234.234375c-7.476563-2.523437-14.625-5.550781-21.371094-9.03125.867188 3 1.585938 6.050781 2.144531 9.136719 2.808594.136718 5.632813.222656 8.480469.222656 3.617188 0 7.199219-.113281 10.746094-.328125zm0 0" fill="#755b62"/><path d="m372.746094 234.234375c-3.546875.214844-7.128906.328125-10.746094.328125-2.847656 0-5.671875-.085938-8.480469-.222656.972657 5.34375 1.480469 10.804687 1.480469 16.359375v71.746093c5.671875 2.734376 11.609375 5.140626 17.765625 7.21875 16.976563-1.035156 33.113281-4.492187 47.863281-9.953124 45.183594-16.734376 77.351563-52.21875 81.015625-94.007813.230469-2.640625.355469-5.300781.355469-7.984375v-95.4375c0 59.109375-56.953125 107.550781-129.253906 111.953125zm0 0" fill="#755b62"/><path d="m208.628906 372.707031c-5.523437 0-10 4.476563-10 10v.289063c0 5.523437 4.476563 10 10 10 5.523438 0 10-4.476563 10-10v-.289063c0-5.523437-4.476562-10-10-10zm0 0"/><path d="m65.097656 250.664062 79.453125 51.664063c1.65625 1.078125 3.550781 1.613281 5.449219 1.613281s3.792969-.539062 5.449219-1.613281l79.453125-51.664063c2.835937-1.84375 4.546875-5 4.546875-8.382812s-1.710938-6.539062-4.546875-8.382812l-79.453125-51.664063c-3.3125-2.15625-7.585938-2.152344-10.898438 0l-79.453125 51.664063c-2.835937 1.84375-4.546875 5-4.546875 8.382812s1.710938 6.539062 4.546875 8.382812zm84.902344-48.117187 61.105469 39.734375-61.105469 39.734375-61.105469-39.734375zm0 0"/><path d="m467.25 35.085938c-28.210938-22.625-65.589844-35.085938-105.25-35.085938s-77.039062 12.460938-105.253906 35.085938c-28.855469 23.140624-44.746094 54.109374-44.746094 87.195312 0 2.945312.144531 5.882812.402344 8.8125-19.011719-7.117188-40.148438-11.09375-62.402344-11.09375-82.710938 0-150 54.855469-150 122.28125v95.4375c0 33.085938 15.890625 64.054688 44.746094 87.195312 28.214844 22.625 65.59375 35.085938 105.253906 35.085938s77.039062-12.460938 105.25-35.085938c28.859375-23.144531 44.75-54.109374 44.75-87.195312v-8.621094c19.371094 7.152344 40.519531 10.902344 62 10.902344 39.660156 0 77.039062-12.460938 105.25-35.085938 28.859375-23.140624 44.75-54.109374 44.75-87.195312v-95.4375c0-33.085938-15.890625-64.054688-44.75-87.195312zm-105.25-15.085938c71.683594 0 130 45.882812 130 102.28125s-58.316406 102.28125-130 102.28125c-23.882812 0-47.074219-5.121094-67.359375-14.835938-9.453125-28.140624-30.699219-52.296874-60.453125-68.714843-1.453125-6.152344-2.1875-12.433594-2.1875-18.730469 0-56.398438 58.316406-102.28125 130-102.28125zm-304.660156 150.75c24.726562-19.828125 57.632812-30.75 92.660156-30.75s67.933594 10.921875 92.660156 30.75c24.078125 19.3125 37.339844 44.714844 37.339844 71.53125s-13.261719 52.21875-37.339844 71.53125c-24.726562 19.828125-57.632812 30.75-92.660156 30.75s-67.933594-10.921875-92.660156-30.75c-24.078125-19.3125-37.339844-44.714844-37.339844-71.53125s13.261719-52.21875 37.339844-71.53125zm161.289062 253.796875v-12.84375c0-5.523437-4.480468-10-10-10-5.523437 0-10 4.476563-10 10v20.867187c-15.03125 4.785157-31.445312 7.429688-48.628906 7.429688-71.683594 0-130-45.882812-130-102.28125v-34.484375c25.941406 36.625 74.496094 61.328125 130 61.328125s104.058594-24.703125 130-61.328125v34.484375c0 36.589844-24.554688 68.75-61.371094 86.828125zm273.371094-206.828125c0 36.589844-24.554688 68.75-61.371094 86.828125v-12.84375c0-5.523437-4.480468-10-10-10-5.523437 0-10 4.476563-10 10v20.867187c-15.03125 4.785157-31.445312 7.429688-48.628906 7.429688-21.742188 0-43.035156-4.289062-62-12.425781v-65.296875c0-2.941406-.136719-5.859375-.386719-8.753906 19.464844 7.25 40.699219 11.035156 62.386719 11.035156 39.660156 0 77.039062-12.457032 105.25-35.082032 9.777344-7.84375 18.0625-16.585937 24.75-26.003906zm0 0"/><path d="m420.628906 252.707031c-5.523437 0-10 4.476563-10 10v.289063c0 5.523437 4.476563 10 10 10 5.523438 0 10-4.476563 10-10v-.289063c0-5.523437-4.476562-10-10-10zm0 0"/><path d="m277.097656 130.664062 79.453125 51.664063c1.65625 1.078125 3.550781 1.613281 5.449219 1.613281s3.792969-.539062 5.449219-1.613281l79.453125-51.664063c2.835937-1.84375 4.546875-5 4.546875-8.382812s-1.710938-6.539062-4.546875-8.382812l-79.453125-51.664063c-3.3125-2.15625-7.585938-2.15625-10.898438 0l-79.453125 51.664063c-2.835937 1.84375-4.546875 4.996093-4.546875 8.382812 0 3.382812 1.710938 6.539062 4.546875 8.382812zm84.902344-48.117187 61.105469 39.734375-61.105469 39.734375-61.105469-39.734375zm0 0"/></svg>