<svg height="512pt" viewBox="0 0 512 512" width="512pt" xmlns="http://www.w3.org/2000/svg"><g fill-rule="evenodd"><path d="m305.199219 353.773438h-31.214844c-21.40625 0-36.519531 17.53125-38.917969 38.667968l-12.429687 109.558594h133.910156l-12.433594-109.558594c-2.394531-21.136718-17.511719-38.667968-38.914062-38.667968zm0 0" fill="#b3b3b3"/><path d="m317.433594 353.382812c102.988281-6.277343 184.5625-91.242187 184.5625-195.15625h-369.121094c0 103.914063 81.570312 188.878907 184.558594 195.15625zm0 0" fill="#fffbee"/><path d="m293.03125 10h-15.382812c-16.109376 0-27.488282 17.535156-29.292969 38.667969l-9.355469 109.558593h92.683594l-9.359375-109.558593c-1.804688-21.132813-13.179688-38.667969-29.292969-38.667969zm0 0" fill="#b3b3b3"/></g><path d="m511.996094 158.226562c0-5.519531-4.476563-10-10-10h-161.128906l-8.578126-100.410156c-2.40625-28.152344-18.546874-47.816406-39.257812-47.816406h-74.066406c-20.710938 0-36.851563 19.664062-39.257813 47.816406l-8.574219 100.410156h-161.132812c-5.523438 0-10 4.480469-10 10 0 101.164063 73.910156 185.484376 170.878906 202.433594-6.910156 8.105469-11.574218 18.660156-12.933594 30.652344l-12.429687 109.558594c-.320313 2.832031.578125 5.664062 2.476563 7.789062 1.894531 2.125 4.609374 3.339844 7.457031 3.339844h201.097656.019531c5.523438 0 10.003906-4.476562 10.003906-10 0-.605469-.058593-1.199219-.160156-1.777344l-12.355468-108.910156c-1.363282-11.992188-6.027344-22.550781-12.933594-30.652344 96.964844-16.949218 170.875-101.269531 170.875-202.433594zm-312.359375-108.707031c1.4375-16.828125 9.746093-29.519531 19.328125-29.519531h74.066406c9.582031 0 17.894531 12.691406 19.332031 29.519531l8.429688 98.707031h-129.589844zm105.5625 314.253907c17.585937 0 27.351562 15.441406 28.980469 29.792968l11.167968 98.433594h-178.699218l11.167968-98.433594c1.628906-14.351562 11.394532-29.792968 28.980469-29.792968zm0-20h-98.398438c-99.628906 0-181.285156-77.867188-186.53125-175.546876h471.460938c-5.246094 97.679688-86.90625 175.546876-186.53125 175.546876zm0 0"/><path d="m96.40625 186.074219h-41.035156c-5.523438 0-10 4.476562-10 10 0 5.523437 4.476562 10 10 10h41.035156c5.519531 0 10-4.476563 10-10 0-5.523438-4.480469-10-10-10zm0 0"/><path d="m125.398438 186.078125h-.285157c-5.523437 0-10 4.476563-10 10 0 5.519531 4.476563 10 10 10h.285157c5.523437 0 10-4.480469 10-10 0-5.523437-4.476563-10-10-10zm0 0"/><path d="m116.53125 109.574219c-2.164062 5.082031.203125 10.953125 5.285156 13.117187 1.277344.542969 2.605469.800782 3.910156.800782 3.890626 0 7.589844-2.28125 9.207032-6.085938 8.738281-20.53125 4.539062-31.746094 1.167968-40.753906-2.359374-6.292969-4.058593-10.839844-2.042968-19.691406 1.226562-5.386719-2.144532-10.746094-7.527344-11.972657-5.382812-1.226562-10.746094 2.144531-11.972656 7.527344-3.347656 14.695313.066406 23.816406 2.8125 31.148437 2.871094 7.667969 4.765625 12.734376-.839844 25.910157zm0 0"/><path d="m50.828125 109.574219c-2.164063 5.082031.203125 10.953125 5.285156 13.117187 1.277344.542969 2.605469.800782 3.910157.800782 3.890624 0 7.589843-2.28125 9.207031-6.085938 8.738281-20.53125 4.542969-31.746094 1.167969-40.753906-2.355469-6.292969-4.058594-10.839844-2.042969-19.691406 1.226562-5.386719-2.144531-10.746094-7.527344-11.972657-5.382813-1.226562-10.746094 2.144531-11.972656 7.527344-3.347657 14.695313.066406 23.816406 2.8125 31.148437 2.871093 7.667969 4.765625 12.734376-.839844 25.910157zm0 0"/><path d="m440.925781 109.574219c-2.164062 5.082031.203125 10.953125 5.285157 13.117187 1.277343.542969 2.605468.800782 3.910156.800782 3.890625 0 7.585937-2.28125 9.207031-6.085938 8.738281-20.53125 4.539063-31.746094 1.167969-40.753906-2.359375-6.292969-4.058594-10.839844-2.042969-19.691406 1.226563-5.386719-2.144531-10.746094-7.527344-11.972657-5.390625-1.226562-10.746093 2.144531-11.972656 7.527344-3.347656 14.695313.066406 23.816406 2.8125 31.148437 2.871094 7.667969 4.765625 12.734376-.839844 25.910157zm0 0"/><path d="m375.222656 109.574219c-2.164062 5.082031.203125 10.953125 5.285156 13.117187 1.277344.542969 2.605469.800782 3.910157.800782 3.890625 0 7.585937-2.28125 9.207031-6.085938 8.738281-20.53125 4.539062-31.746094 1.167969-40.753906-2.355469-6.292969-4.058594-10.839844-2.042969-19.691406 1.226562-5.386719-2.144531-10.746094-7.527344-11.972657-5.390625-1.226562-10.746094 2.144531-11.972656 7.527344-3.347656 14.695313.066406 23.816406 2.8125 31.148437 2.871094 7.667969 4.765625 12.734376-.839844 25.910157zm0 0"/></svg>