<svg height="512pt" viewBox="-26 0 512 512.00065" width="512pt" xmlns="http://www.w3.org/2000/svg"><g fill-rule="evenodd"><path d="m333.671875 455.28125c58.527344-35.222656 97.683594-99.355469 97.683594-172.640625h-293.0625c0 73.285156 39.152343 137.417969 97.679687 172.640625h-.015625v46.71875h97.730469v-46.71875zm0 0" fill="#ff435f"/><path d="m72.058594 106.9375c-3.003906-8.964844-6.523438-17.871094-9.085938-26.410156h-52.972656v25zm0 0" fill="#c77c74"/><path d="m219.960938 80.527344c2.910156 9.683594 7.039062 19.835937 10.257812 30.003906l219.78125 4.996094v-35zm0 0" fill="#c77c74"/><path d="m148 20v25h302v-31.863281zm0 0" fill="#c77c74"/><path d="m105.347656 166.527344c35.8125-36.5-21.367187-89.007813-2.945312-121.527344h-16.429688c-5.796875 10.238281-4.105468 22.453125-.183594 35.527344 2.566407 8.539062 6.082032 17.449218 9.085938 26.410156 7.003906 20.894531 11.21875 42.082031-5.957031 59.589844-35.8125 36.5 0 79.730468 0 116.113281h16.429687c0-36.382813-35.816406-79.613281 0-116.113281zm0 0" fill="#f4d99d"/><path d="m105.347656 166.527344c-35.8125 36.5 0 79.730468 0 116.113281h39.246094c0-36.382813-35.8125-79.613281 0-116.113281s-21.363281-89.007813-2.941406-121.527344h-39.25c-18.421875 32.519531 38.757812 85.027344 2.945312 121.527344zm0 0" fill="#ffba5a"/><path d="m144.59375 166.527344c-35.8125 36.5 0 79.730468 0 116.113281h39.246094c0-36.382813-35.8125-79.613281 0-116.113281 35.816406-36.5-21.363282-89.007813-2.941406-121.527344h-39.246094c-18.421875 32.519531 38.753906 85.027344 2.941406 121.527344zm0 0" fill="#f4d99d"/><path d="m183.839844 166.527344c-35.8125 36.5 0 79.730468 0 116.113281h39.25c0-36.382813-35.8125-79.613281 0-116.113281 16.191406-16.503906 13.375-36.277344 7.128906-55.996094-3.21875-10.167969-7.347656-20.320312-10.257812-30.003906-3.921876-13.074219-5.613282-25.289063.183593-35.527344h-39.246093c-18.421876 32.519531 38.757812 85.027344 2.941406 121.527344zm0 0" fill="#ffba5a"/><path d="m318.746094 243.953125c-1.675782-.984375-3.4375-1.84375-5.257813-2.585937-14.949219 6.117187-25.488281 20.800781-25.488281 37.953124 0 1.117188.046875 2.226563.132812 3.320313h32.089844c-3.027344-6.390625-4.722656-13.53125-4.722656-21.070313 0-6.207031 1.148438-12.148437 3.246094-17.617187zm0 0" fill="#755b62"/><path d="m385.238281 216.789062c-11.664062 5.351563-20.875 15.117188-25.492187 27.164063-2.097656 5.46875-3.246094 11.410156-3.246094 17.617187 0 7.539063 1.695312 14.683594 4.722656 21.070313h48.050782c3.027343-6.386719 4.726562-13.53125 4.726562-21.070313 0-19.882812-11.792969-37.003906-28.761719-44.78125zm0 0" fill="#ff9455"/></g><path d="m142.042969 309.027344h-.289063c-5.523437 0-10 4.476562-10 10 0 5.523437 4.476563 10 10 10h.289063c5.523437 0 10-4.476563 10-10 0-5.523438-4.476563-10-10-10zm0 0"/><path d="m113.046875 309.023438h-41.03125c-5.523437 0-10 4.476562-10 10 0 5.523437 4.476563 10 10 10h41.03125c5.523437 0 10-4.476563 10-10 0-5.523438-4.476563-10-10-10zm0 0"/><path d="m226.949219 55h223.050781c5.523438 0 10-4.476562 10-10v-35c0-2.691406-1.085938-5.269531-3.011719-7.148438-1.925781-1.882812-4.535156-2.9101558-7.214843-2.84765575l-440 9.99999975c-5.433594.121094-9.773438 4.5625-9.773438 9.996094v25c0 5.523438 4.476562 10 10 10h39.679688c-.570313 5.070312-.257813 10.265625.625 15.527344h-40.304688c-5.523438 0-10 4.476562-10 10v25c0 5.433594 4.339844 9.871094 9.773438 9.996094l54.851562 1.246093c5.289062 18.023438 5.671875 31.203125-5.664062 42.753907-28.269532 28.8125-18.222657 61.996093-10.148438 88.65625 2.589844 8.546874 5.078125 16.765624 6.371094 24.460937h-26.535156c-5.523438 0-10 4.476563-10 10 0 37.121094 9.761718 73.632813 28.234374 105.597656 16.957032 29.34375 40.890626 54.34375 69.429688 72.59375v41.167969c0 5.523438 4.476562 10 10 10h207.375c5.523438 0 10-4.476562 10-10v-41.167969c28.542969-18.253906 52.472656-43.25 69.429688-72.59375 18.472656-31.964843 28.238281-68.476562 28.238281-105.597656 0-5.523437-4.480469-10-10-10h-8.40625c.683593-3.621094 1.050781-7.3125 1.050781-11.070313 0-32.667968-26.582031-59.25-59.25-59.25-21.460938 0-40.289062 11.46875-50.6875 28.597657-5.15625-1.707031-10.582031-2.597657-16.0625-2.597657-25.859375 0-47.265625 19.34375-50.550781 44.320313h-15.0625c-1.347657-10.125-4.429688-20.320313-7.441407-30.257813-7.878906-26.027343-14.6875-48.503906 5.28125-68.855468 15.875-16.175782 16.792969-34.832032 13.058594-52.699219l206.488282 4.695313h.226562c2.609375 0 5.121094-1.019532 6.988281-2.847657 1.925781-1.882812 3.011719-4.460937 3.011719-7.152343v-35c0-5.523438-4.476562-10-10-10h-222.335938c-1.257812-5.714844-1.703124-10.976563-.714843-15.523438zm-206.949219-25.222656 420-9.546875v14.769531h-219.65625c-.011719 0-.023438 0-.035156 0h-39.214844c-.011719 0-.019531 0-.03125 0h-39.21875c-.007812 0-.019531 0-.027344 0h-39.214844c-.011718 0-.023437 0-.035156 0h-39.214844c-.011718 0-.023437 0-.035156 0h-43.316406zm156.695312 70.011718c9.761719 27.222657 14.632813 44.828126.007813 59.734376-28.265625 28.808593-18.21875 61.992187-10.144531 88.65625 2.585937 8.546874 5.074218 16.765624 6.363281 24.460937h-19.027344c-1.347656-10.125-4.433593-20.320313-7.445312-30.257813-7.878907-26.027343-14.683594-48.5 5.285156-68.855468 24.460937-24.929688 13.417969-55.734375 4.539063-80.488282-5.128907-14.308593-10.015626-27.941406-7.816407-38.039062h18.964844c-1.621094 14.378906 3.890625 29.769531 9.273437 44.789062zm-62.050781 172.851563c-1.347656-10.125-4.429687-20.316406-7.441406-30.257813-7.882813-26.023437-14.6875-48.5 5.28125-68.851562 24.464844-24.933594 13.417969-55.738281 4.542969-80.492188-5.128906-14.308593-10.015625-27.9375-7.820313-38.039062h18.96875c-1.621093 14.378906 3.890625 29.773438 9.273438 44.789062 9.757812 27.226563 14.632812 44.828126.007812 59.734376-28.269531 28.8125-18.222656 61.996093-10.148437 88.65625 2.589844 8.546874 5.078125 16.765624 6.367187 24.460937zm-94.644531-182.113281h35.691406c.6875 2.03125 1.402344 4.058594 2.125 6.082031l-37.816406-.859375zm47.953125 151.855468c-7.878906-26.023437-14.683594-48.5 5.285156-68.851562 20.894531-21.296875 15.878907-46.875 8.445313-69.308594-.0625-.210937-.136719-.417968-.207032-.621094-1.210937-3.617187-2.472656-7.148437-3.699218-10.5625-5.128906-14.308593-10.011719-27.941406-7.816406-38.039062h18.964843c-1.621093 14.378906 3.890625 29.769531 9.273438 44.789062 9.761719 27.222657 14.632812 44.828126.007812 59.734376-28.269531 28.808593-18.21875 61.992187-10.144531 88.65625 2.585938 8.546874 5.074219 16.765624 6.367188 24.460937h-19.03125c-1.347657-10.125-4.433594-20.316406-7.445313-30.257813zm260.5625 204.328126c-3.195313 1.921874-4.992187 5.414062-4.828125 9.019531v36.269531h-187.375v-36.132812c.214844-3.652344-1.59375-7.210938-4.828125-9.15625-55.257813-33.253907-89.347656-90.316407-92.585937-154.070313h218.214843.007813.011718 63.0625.035157.042969 100.828124c-3.238281 63.753906-37.328124 120.816406-92.585937 154.070313zm36.234375-224.390626c21.640625 0 39.25 17.609376 39.25 39.25 0 3.800782-.539062 7.503907-1.589844 11.070313h-75.324218c-1.050782-3.566406-1.585938-7.269531-1.585938-11.070313 0-21.640624 17.605469-39.25 39.25-39.25zm-66.75 26c2.96875 0 5.902344.4375 8.71875 1.261719-.796875 3.875-1.21875 7.882813-1.21875 11.988281 0 3.757813.363281 7.449219 1.046875 11.070313h-38.816406c3.066406-13.890625 15.46875-24.320313 30.269531-24.320313zm-82.046875-88.796874c-28.269531 28.8125-18.222656 61.996093-10.148437 88.65625 2.585937 8.546874 5.074218 16.765624 6.367187 24.460937h-19.03125c-1.347656-10.125-4.433594-20.316406-7.441406-30.257813-7.882813-26.023437-14.6875-48.5 5.28125-68.851562 24.464843-24.933594 13.417969-55.738281 4.542969-80.492188-5.128907-14.308593-10.015626-27.941406-7.820313-38.039062h18.96875c-1.03125 9.132812.816406 18.675781 3.683594 28.273438.035156.125.070312.25.113281.375 1.621094 5.386718 3.558594 10.785156 5.476562 16.140624 9.757813 27.222657 14.632813 44.828126.007813 59.734376zm224.046875-68.996094v14.769531l-202.523438-4.605469c-.898437-2.601562-1.8125-5.160156-2.707031-7.652344-.300781-.839843-.601562-1.679687-.898437-2.511718zm0 0"/></svg>