<svg height="511pt" viewBox="-26 0 511 511.99998" width="511pt" xmlns="http://www.w3.org/2000/svg"><g fill-rule="evenodd"><path d="m258.355469 172.667969 40.417969-150.847657-16.144532-4.324218-37.136718 152.355468c4.398437.789063 8.691406 1.726563 12.863281 2.816407zm0 0" fill="#c77c74"/><path d="m336.398438 215.144531 113.484374-186.632812-15.183593-8.765625-108.375 187.714844c3.453125 2.445312 6.804687 5.015624 10.074219 7.683593zm0 0" fill="#c77c74"/><path d="m335.140625 217.214844c-7.292969-7.074219-15.042969-13.617188-23.335937-19.492188l.003906-.003906c-15.660156-11.085938-33.265625-19.773438-53.453125-25.050781l-.003907.007812c-1.925781-.503906-3.878906-.964843-5.851562-1.40625-63.019531 14.078125-101.507812 60.6875-133.441406 111.371094h266.921875c-14.910157-23.660156-31.246094-46.4375-50.839844-65.425781zm0 0" fill="#fffbee"/><path d="m315.523438 455.28125c58.527343-35.222656 97.683593-99.355469 97.683593-172.640625h-294.148437c0 73.285156 39.15625 137.417969 97.683594 172.640625h-.019532v46.71875h98.816406v-46.71875zm0 0" fill="#ff435f"/></g><path d="m94.902344 309.027344h-41.035156c-5.523438 0-10 4.476562-10 10 0 5.519531 4.476562 10 10 10h41.035156c5.519531 0 10-4.480469 10-10 0-5.523438-4.476563-10-10-10zm0 0"/><path d="m123.894531 309.027344h-.285156c-5.523437 0-10 4.476562-10 10 0 5.523437 4.476563 10 10 10h.285156c5.523438 0 10-4.476563 10-10 0-5.523438-4.476562-10-10-10zm0 0"/><path d="m135.980469 234.441406h-.289063c-5.519531 0-10 4.480469-10 10 0 5.523438 4.480469 10 10 10h.289063c5.519531 0 10-4.476562 10-10 0-5.519531-4.476563-10-10-10zm0 0"/><path d="m280.480469 235.441406h-.289063c-5.523437 0-10 4.480469-10 10 0 5.523438 4.476563 10 10 10h.289063c5.519531 0 10-4.476562 10-10 0-5.519531-4.480469-10-10-10zm0 0"/><path d="m220.339844 206.304688h-.285156c-5.523438 0-10 4.476562-10 10 0 5.523437 4.476562 10 10 10h.285156c5.523437 0 10-4.476563 10-10 0-5.523438-4.476563-10-10-10zm0 0"/><path d="m459.042969 32.699219c1.394531-2.300781 1.808593-5.066407 1.140625-7.675781-.664063-2.605469-2.355469-4.835938-4.6875-6.179688l-30.308594-17.5c-4.785156-2.765625-10.902344-1.125-13.660156 3.65625l-103.054688 178.496094c-12.046875-7.511719-24.65625-13.398438-37.921875-17.707032l38.621094-144.136718c1.429687-5.335938-1.734375-10.820313-7.070313-12.25l-33.808593-9.058594c-2.597657-.695312-5.371094-.3164062-7.683594 1.054688-2.316406 1.375-3.980469 3.621093-4.621094 6.238281l-36.425781 149.441406c-2.546875-.089844-5.117188-.132813-7.710938-.132813-42.777343 0-79.363281 12.144532-111.851562 37.128907-29.609375 22.777343-51.601562 53.339843-67.765625 78.566406h-21.734375c-5.523438 0-10 4.476563-10 10 0 37.121094 9.765625 73.632813 28.234375 105.597656 16.960937 29.34375 40.890625 54.34375 69.429687 72.59375v41.167969c0 5.523438 4.480469 10 10 10h207.375c5.523438 0 10-4.476562 10-10v-41.167969c28.542969-18.25 52.472657-43.25 69.433594-72.59375 18.46875-31.964843 28.234375-68.476562 28.234375-105.597656 0-5.523437-4.480469-10-10-10h-21.738281c-11.4375-17.855469-25.808594-38.359375-43.722656-56.90625zm-35.195313-9.035157 12.789063 7.382813-103.714844 170.570313c-.785156-.679688-1.574219-1.332032-2.363281-1.996094-.488282-.414063-.972656-.832032-1.46875-1.242188-1.386719-1.140625-2.777344-2.265625-4.175782-3.359375zm-150.851562-1.355468 14.269531 3.824218-36.066406 134.597657c-3.769531-.761719-7.589844-1.410157-11.464844-1.941407zm37.371094 424.402344c-3.191407 1.921874-4.988282 5.410156-4.828126 9.011718v36.277344h-187.375v-36.128906c.21875-3.65625-1.59375-7.214844-4.824218-9.160156-55.261719-33.253907-89.351563-90.316407-92.585938-154.070313h382.199219c-3.234375 63.753906-37.328125 120.816406-92.585937 154.070313zm-254.199219-174.070313c34.746093-51.449219 79.085937-95.695313 155.683593-95.695313 5.703126 0 11.222657.25 16.574219.722657.339844.03125.679688.058593 1.019531.089843.949219.089844 1.890626.1875 2.824219.292969.148438.015625.300781.03125.449219.046875 64.023438 7.273438 103.355469 47.953125 134.820312 94.542969zm0 0"/></svg>